<?xml version="1.0" encoding="UTF-8" standalone="no"?>
<!DOCTYPE svg PUBLIC "-//W3C//DTD SVG 1.1//EN"
 "http://www.w3.org/Graphics/SVG/1.1/DTD/svg11.dtd">
<!-- Generated by graphviz version 2.40.1 (20161225.0304)
 -->
<!-- Title: controllers_diagram Pages: 1 -->
<svg width="575pt" height="460pt"
 viewBox="0.00 0.00 575.38 460.00" xmlns="http://www.w3.org/2000/svg" xmlns:xlink="http://www.w3.org/1999/xlink">
<g id="graph0" class="graph" transform="scale(1 1) rotate(0) translate(4 456)">
<title>controllers_diagram</title>
<polygon fill="transparent" stroke="transparent" points="-4,4 -4,-456 571.3755,-456 571.3755,4 -4,4"/>
<!-- _diagram_info -->
<g id="node1" class="node">
<title>_diagram_info</title>
<text text-anchor="start" x="368" y="-418.6" font-family="Times,serif" font-size="13.00" fill="#000000">Controllers diagram</text>
<text text-anchor="start" x="368" y="-405.6" font-family="Times,serif" font-size="13.00" fill="#000000">Date: Mar 22 2018 &#45; 16:05</text>
<text text-anchor="start" x="368" y="-392.6" font-family="Times,serif" font-size="13.00" fill="#000000">Migration version: 20180104130247</text>
<text text-anchor="start" x="368" y="-379.6" font-family="Times,serif" font-size="13.00" fill="#000000">Generated by RailRoady 1.5.3</text>
<text text-anchor="start" x="368" y="-366.6" font-family="Times,serif" font-size="13.00" fill="#000000">http://railroady.prestonlee.com</text>
</g>
<!-- ApplicationController -->
<g id="node2" class="node">
<title>ApplicationController</title>
<path fill="none" stroke="#000000" d="M147,-345.5C147,-345.5 262.6416,-345.5 262.6416,-345.5 268.6416,-345.5 274.6416,-351.5 274.6416,-357.5 274.6416,-357.5 274.6416,-439.5 274.6416,-439.5 274.6416,-445.5 268.6416,-451.5 262.6416,-451.5 262.6416,-451.5 147,-451.5 147,-451.5 141,-451.5 135,-445.5 135,-439.5 135,-439.5 135,-357.5 135,-357.5 135,-351.5 141,-345.5 147,-345.5"/>
<text text-anchor="middle" x="204.8208" y="-436.3" font-family="Times,serif" font-size="14.00" fill="#000000">ApplicationController</text>
<polyline fill="none" stroke="#000000" points="135,-429.5 274.6416,-429.5 "/>
<polyline fill="none" stroke="#000000" points="135,-405.5 274.6416,-405.5 "/>
<polyline fill="none" stroke="#000000" points="135,-381.5 274.6416,-381.5 "/>
<text text-anchor="start" x="143" y="-366.3" font-family="Times,serif" font-size="14.00" fill="#000000">_layout</text>
<text text-anchor="start" x="143" y="-352.3" font-family="Times,serif" font-size="14.00" fill="#000000">require_signing_in</text>
</g>
<!-- CoursesController -->
<g id="node3" class="node">
<title>CoursesController</title>
<path fill="none" stroke="#000000" d="M162,-105.5C162,-105.5 256.6553,-105.5 256.6553,-105.5 262.6553,-105.5 268.6553,-111.5 268.6553,-117.5 268.6553,-117.5 268.6553,-295.5 268.6553,-295.5 268.6553,-301.5 262.6553,-307.5 256.6553,-307.5 256.6553,-307.5 162,-307.5 162,-307.5 156,-307.5 150,-301.5 150,-295.5 150,-295.5 150,-117.5 150,-117.5 150,-111.5 156,-105.5 162,-105.5"/>
<text text-anchor="middle" x="209.3276" y="-292.3" font-family="Times,serif" font-size="14.00" fill="#000000">CoursesController</text>
<polyline fill="none" stroke="#000000" points="150,-285.5 268.6553,-285.5 "/>
<text text-anchor="start" x="158" y="-270.3" font-family="Times,serif" font-size="14.00" fill="#000000">create</text>
<text text-anchor="start" x="158" y="-256.3" font-family="Times,serif" font-size="14.00" fill="#000000">destroy</text>
<text text-anchor="start" x="158" y="-242.3" font-family="Times,serif" font-size="14.00" fill="#000000">edit</text>
<text text-anchor="start" x="158" y="-228.3" font-family="Times,serif" font-size="14.00" fill="#000000">index</text>
<text text-anchor="start" x="158" y="-214.3" font-family="Times,serif" font-size="14.00" fill="#000000">new</text>
<text text-anchor="start" x="158" y="-200.3" font-family="Times,serif" font-size="14.00" fill="#000000">show</text>
<text text-anchor="start" x="158" y="-186.3" font-family="Times,serif" font-size="14.00" fill="#000000">update</text>
<polyline fill="none" stroke="#000000" points="150,-179.5 268.6553,-179.5 "/>
<polyline fill="none" stroke="#000000" points="150,-155.5 268.6553,-155.5 "/>
<text text-anchor="start" x="158" y="-140.3" font-family="Times,serif" font-size="14.00" fill="#000000">_layout</text>
<text text-anchor="start" x="158" y="-126.3" font-family="Times,serif" font-size="14.00" fill="#000000">course_params</text>
<text text-anchor="start" x="158" y="-112.3" font-family="Times,serif" font-size="14.00" fill="#000000">set_course</text>
</g>
<!-- SessionsController -->
<g id="node4" class="node">
<title>SessionsController</title>
<path fill="none" stroke="#000000" d="M12,-195.5C12,-195.5 109.7793,-195.5 109.7793,-195.5 115.7793,-195.5 121.7793,-201.5 121.7793,-207.5 121.7793,-207.5 121.7793,-301.5 121.7793,-301.5 121.7793,-307.5 115.7793,-313.5 109.7793,-313.5 109.7793,-313.5 12,-313.5 12,-313.5 6,-313.5 0,-307.5 0,-301.5 0,-301.5 0,-207.5 0,-207.5 0,-201.5 6,-195.5 12,-195.5"/>
<text text-anchor="middle" x="60.8896" y="-298.3" font-family="Times,serif" font-size="14.00" fill="#000000">SessionsController</text>
<polyline fill="none" stroke="#000000" points="0,-291.5 121.7793,-291.5 "/>
<text text-anchor="start" x="8" y="-276.3" font-family="Times,serif" font-size="14.00" fill="#000000">create</text>
<text text-anchor="start" x="8" y="-262.3" font-family="Times,serif" font-size="14.00" fill="#000000">destroy</text>
<text text-anchor="start" x="8" y="-248.3" font-family="Times,serif" font-size="14.00" fill="#000000">new</text>
<polyline fill="none" stroke="#000000" points="0,-241.5 121.7793,-241.5 "/>
<polyline fill="none" stroke="#000000" points="0,-217.5 121.7793,-217.5 "/>
<text text-anchor="start" x="8" y="-202.3" font-family="Times,serif" font-size="14.00" fill="#000000">_layout</text>
</g>
<!-- HomeController -->
<g id="node5" class="node">
<title>HomeController</title>
<path fill="none" stroke="#000000" d="M27,-75.5C27,-75.5 110.7588,-75.5 110.7588,-75.5 116.7588,-75.5 122.7588,-81.5 122.7588,-87.5 122.7588,-87.5 122.7588,-153.5 122.7588,-153.5 122.7588,-159.5 116.7588,-165.5 110.7588,-165.5 110.7588,-165.5 27,-165.5 27,-165.5 21,-165.5 15,-159.5 15,-153.5 15,-153.5 15,-87.5 15,-87.5 15,-81.5 21,-75.5 27,-75.5"/>
<text text-anchor="middle" x="68.8794" y="-150.3" font-family="Times,serif" font-size="14.00" fill="#000000">HomeController</text>
<polyline fill="none" stroke="#000000" points="15,-143.5 122.7588,-143.5 "/>
<text text-anchor="start" x="23" y="-128.3" font-family="Times,serif" font-size="14.00" fill="#000000">index</text>
<polyline fill="none" stroke="#000000" points="15,-121.5 122.7588,-121.5 "/>
<polyline fill="none" stroke="#000000" points="15,-97.5 122.7588,-97.5 "/>
<text text-anchor="start" x="23" y="-82.3" font-family="Times,serif" font-size="14.00" fill="#000000">_layout</text>
</g>
<!-- AdminController -->
<g id="node6" class="node">
<title>AdminController</title>
<path fill="none" stroke="#000000" d="M312,-.5C312,-.5 400.4346,-.5 400.4346,-.5 406.4346,-.5 412.4346,-6.5 412.4346,-12.5 412.4346,-12.5 412.4346,-78.5 412.4346,-78.5 412.4346,-84.5 406.4346,-90.5 400.4346,-90.5 400.4346,-90.5 312,-90.5 312,-90.5 306,-90.5 300,-84.5 300,-78.5 300,-78.5 300,-12.5 300,-12.5 300,-6.5 306,-.5 312,-.5"/>
<text text-anchor="middle" x="356.2173" y="-75.3" font-family="Times,serif" font-size="14.00" fill="#000000">AdminController</text>
<polyline fill="none" stroke="#000000" points="300,-68.5 412.4346,-68.5 "/>
<text text-anchor="start" x="308" y="-53.3" font-family="Times,serif" font-size="14.00" fill="#000000">index</text>
<polyline fill="none" stroke="#000000" points="300,-46.5 412.4346,-46.5 "/>
<polyline fill="none" stroke="#000000" points="300,-22.5 412.4346,-22.5 "/>
<text text-anchor="start" x="308" y="-7.3" font-family="Times,serif" font-size="14.00" fill="#000000">_layout</text>
</g>
<!-- BooksController -->
<g id="node7" class="node">
<title>BooksController</title>
<path fill="none" stroke="#000000" d="M312,-120.5C312,-120.5 397.3311,-120.5 397.3311,-120.5 403.3311,-120.5 409.3311,-126.5 409.3311,-132.5 409.3311,-132.5 409.3311,-310.5 409.3311,-310.5 409.3311,-316.5 403.3311,-322.5 397.3311,-322.5 397.3311,-322.5 312,-322.5 312,-322.5 306,-322.5 300,-316.5 300,-310.5 300,-310.5 300,-132.5 300,-132.5 300,-126.5 306,-120.5 312,-120.5"/>
<text text-anchor="middle" x="354.6655" y="-307.3" font-family="Times,serif" font-size="14.00" fill="#000000">BooksController</text>
<polyline fill="none" stroke="#000000" points="300,-300.5 409.3311,-300.5 "/>
<text text-anchor="start" x="308" y="-285.3" font-family="Times,serif" font-size="14.00" fill="#000000">create</text>
<text text-anchor="start" x="308" y="-271.3" font-family="Times,serif" font-size="14.00" fill="#000000">destroy</text>
<text text-anchor="start" x="308" y="-257.3" font-family="Times,serif" font-size="14.00" fill="#000000">edit</text>
<text text-anchor="start" x="308" y="-243.3" font-family="Times,serif" font-size="14.00" fill="#000000">index</text>
<text text-anchor="start" x="308" y="-229.3" font-family="Times,serif" font-size="14.00" fill="#000000">new</text>
<text text-anchor="start" x="308" y="-215.3" font-family="Times,serif" font-size="14.00" fill="#000000">show</text>
<text text-anchor="start" x="308" y="-201.3" font-family="Times,serif" font-size="14.00" fill="#000000">update</text>
<polyline fill="none" stroke="#000000" points="300,-194.5 409.3311,-194.5 "/>
<polyline fill="none" stroke="#000000" points="300,-170.5 409.3311,-170.5 "/>
<text text-anchor="start" x="308" y="-155.3" font-family="Times,serif" font-size="14.00" fill="#000000">_layout</text>
<text text-anchor="start" x="308" y="-141.3" font-family="Times,serif" font-size="14.00" fill="#000000">book_params</text>
<text text-anchor="start" x="308" y="-127.3" font-family="Times,serif" font-size="14.00" fill="#000000">set_book</text>
</g>
</g>
</svg>
