<?xml version="1.0" encoding="UTF-8" standalone="no"?>
<!DOCTYPE svg PUBLIC "-//W3C//DTD SVG 1.1//EN"
 "http://www.w3.org/Graphics/SVG/1.1/DTD/svg11.dtd">
<!-- Generated by graphviz version 2.40.1 (20161225.0304)
 -->
<!-- Title: models_diagram Pages: 1 -->
<svg width="1186pt" height="193pt"
 viewBox="0.00 0.00 1186.08 193.00" xmlns="http://www.w3.org/2000/svg" xmlns:xlink="http://www.w3.org/1999/xlink">
<g id="graph0" class="graph" transform="scale(1 1) rotate(0) translate(4 189)">
<title>models_diagram</title>
<polygon fill="transparent" stroke="transparent" points="-4,4 -4,-189 1182.0835,-189 1182.0835,4 -4,4"/>
<!-- _diagram_info -->
<g id="node1" class="node">
<title>_diagram_info</title>
<text text-anchor="start" x="8" y="-114.6" font-family="Times,serif" font-size="13.00" fill="#000000">Models diagram</text>
<text text-anchor="start" x="8" y="-101.6" font-family="Times,serif" font-size="13.00" fill="#000000">Date: Mar 22 2018 &#45; 16:05</text>
<text text-anchor="start" x="8" y="-88.6" font-family="Times,serif" font-size="13.00" fill="#000000">Migration version: 20180104130247</text>
<text text-anchor="start" x="8" y="-75.6" font-family="Times,serif" font-size="13.00" fill="#000000">Generated by RailRoady 1.5.3</text>
<text text-anchor="start" x="8" y="-62.6" font-family="Times,serif" font-size="13.00" fill="#000000">http://railroady.prestonlee.com</text>
</g>
<!-- Book -->
<g id="node2" class="node">
<title>Book</title>
<path fill="none" stroke="#000000" d="M237.8254,-.5C237.8254,-.5 461.55,-.5 461.55,-.5 467.55,-.5 473.55,-6.5 473.55,-12.5 473.55,-12.5 473.55,-172.5 473.55,-172.5 473.55,-178.5 467.55,-184.5 461.55,-184.5 461.55,-184.5 237.8254,-184.5 237.8254,-184.5 231.8254,-184.5 225.8254,-178.5 225.8254,-172.5 225.8254,-172.5 225.8254,-12.5 225.8254,-12.5 225.8254,-6.5 231.8254,-.5 237.8254,-.5"/>
<text text-anchor="middle" x="349.6877" y="-169.3" font-family="Times,serif" font-size="14.00" fill="#000000">Book</text>
<polyline fill="none" stroke="#000000" points="225.8254,-162.5 473.55,-162.5 "/>
<text text-anchor="start" x="233.8254" y="-147.3" font-family="Times,serif" font-size="14.00" fill="#000000">updated_at :timestamp without time zone</text>
<text text-anchor="start" x="233.8254" y="-133.3" font-family="Times,serif" font-size="14.00" fill="#000000">title :character varying</text>
<text text-anchor="start" x="233.8254" y="-119.3" font-family="Times,serif" font-size="14.00" fill="#000000">subtitle :character varying</text>
<text text-anchor="start" x="233.8254" y="-105.3" font-family="Times,serif" font-size="14.00" fill="#000000">author :character varying</text>
<text text-anchor="start" x="233.8254" y="-91.3" font-family="Times,serif" font-size="14.00" fill="#000000">link :character varying</text>
<text text-anchor="start" x="233.8254" y="-77.3" font-family="Times,serif" font-size="14.00" fill="#000000">year :integer</text>
<text text-anchor="start" x="233.8254" y="-63.3" font-family="Times,serif" font-size="14.00" fill="#000000">publisher :character varying</text>
<text text-anchor="start" x="233.8254" y="-49.3" font-family="Times,serif" font-size="14.00" fill="#000000">isbn :character varying</text>
<text text-anchor="start" x="233.8254" y="-35.3" font-family="Times,serif" font-size="14.00" fill="#000000">pages :integer</text>
<text text-anchor="start" x="233.8254" y="-21.3" font-family="Times,serif" font-size="14.00" fill="#000000">created_at :timestamp without time zone</text>
<text text-anchor="start" x="233.8254" y="-7.3" font-family="Times,serif" font-size="14.00" fill="#000000">id :bigint</text>
</g>
<!-- Admin -->
<g id="node3" class="node">
<title>Admin</title>
<path fill="none" stroke="#000000" d="M503.8254,-42.5C503.8254,-42.5 727.55,-42.5 727.55,-42.5 733.55,-42.5 739.55,-48.5 739.55,-54.5 739.55,-54.5 739.55,-130.5 739.55,-130.5 739.55,-136.5 733.55,-142.5 727.55,-142.5 727.55,-142.5 503.8254,-142.5 503.8254,-142.5 497.8254,-142.5 491.8254,-136.5 491.8254,-130.5 491.8254,-130.5 491.8254,-54.5 491.8254,-54.5 491.8254,-48.5 497.8254,-42.5 503.8254,-42.5"/>
<text text-anchor="middle" x="615.6877" y="-127.3" font-family="Times,serif" font-size="14.00" fill="#000000">Admin</text>
<polyline fill="none" stroke="#000000" points="491.8254,-120.5 739.55,-120.5 "/>
<text text-anchor="start" x="499.8254" y="-105.3" font-family="Times,serif" font-size="14.00" fill="#000000">id :bigint</text>
<text text-anchor="start" x="499.8254" y="-91.3" font-family="Times,serif" font-size="14.00" fill="#000000">email :character varying</text>
<text text-anchor="start" x="499.8254" y="-77.3" font-family="Times,serif" font-size="14.00" fill="#000000">password_digest :character varying</text>
<text text-anchor="start" x="499.8254" y="-63.3" font-family="Times,serif" font-size="14.00" fill="#000000">created_at :timestamp without time zone</text>
<text text-anchor="start" x="499.8254" y="-49.3" font-family="Times,serif" font-size="14.00" fill="#000000">updated_at :timestamp without time zone</text>
</g>
<!-- Course -->
<g id="node4" class="node">
<title>Course</title>
<path fill="none" stroke="#000000" d="M769.8254,-35.5C769.8254,-35.5 993.55,-35.5 993.55,-35.5 999.55,-35.5 1005.55,-41.5 1005.55,-47.5 1005.55,-47.5 1005.55,-137.5 1005.55,-137.5 1005.55,-143.5 999.55,-149.5 993.55,-149.5 993.55,-149.5 769.8254,-149.5 769.8254,-149.5 763.8254,-149.5 757.8254,-143.5 757.8254,-137.5 757.8254,-137.5 757.8254,-47.5 757.8254,-47.5 757.8254,-41.5 763.8254,-35.5 769.8254,-35.5"/>
<text text-anchor="middle" x="881.6877" y="-134.3" font-family="Times,serif" font-size="14.00" fill="#000000">Course</text>
<polyline fill="none" stroke="#000000" points="757.8254,-127.5 1005.55,-127.5 "/>
<text text-anchor="start" x="765.8254" y="-112.3" font-family="Times,serif" font-size="14.00" fill="#000000">id :bigint</text>
<text text-anchor="start" x="765.8254" y="-98.3" font-family="Times,serif" font-size="14.00" fill="#000000">title :character varying</text>
<text text-anchor="start" x="765.8254" y="-84.3" font-family="Times,serif" font-size="14.00" fill="#000000">link :character varying</text>
<text text-anchor="start" x="765.8254" y="-70.3" font-family="Times,serif" font-size="14.00" fill="#000000">platform :character varying</text>
<text text-anchor="start" x="765.8254" y="-56.3" font-family="Times,serif" font-size="14.00" fill="#000000">created_at :timestamp without time zone</text>
<text text-anchor="start" x="765.8254" y="-42.3" font-family="Times,serif" font-size="14.00" fill="#000000">updated_at :timestamp without time zone</text>
</g>
<!-- ApplicationRecord -->
<g id="node5" class="node">
<title>ApplicationRecord</title>
<ellipse fill="none" stroke="#000000" cx="1100.6877" cy="-92.5" rx="77.2916" ry="18"/>
<text text-anchor="middle" x="1100.6877" y="-88.3" font-family="Times,serif" font-size="14.00" fill="#000000">ApplicationRecord</text>
</g>
</g>
</svg>
